<?xml version="1.0" encoding="utf-8" ?>
<svg xmlns="http://www.w3.org/2000/svg" xmlns:xlink="http://www.w3.org/1999/xlink" width="200" height="50">
	<path fill="#FEFEFE" d="M0 0L199.562 0C199.867 0.461897 199.952 0.891373 199.976 1.43478C200.137 5.20659 200.009 9.0358 200.01 12.8125L200.009 34.5472C200.008 37.3999 200.407 46.8717 199.925 49.1505C199.861 49.4508 199.73 49.7436 199.562 50L0 50L0 0Z"/>
	<path fill="#FEC62B" d="M21.7349 21.3691C22.8554 21.0546 26.1042 20.4327 26.9041 19.691C26.9748 19.6253 27.0426 19.56 27.1052 19.4865C26.2807 18.5065 24.428 18.8657 23.557 17.7359L23.743 17.374C26.132 17.0349 29.2714 16.1825 31.6309 16.3824C35.4329 16.7046 37.478 18.5125 42.3156 18.1609C43.3823 18.0833 45.5283 18.1145 46.2563 17.274C46.3009 17.2351 46.3473 17.2021 46.3963 17.1692C46.8208 16.8845 48.0186 16.9568 48.5534 16.9314L48.6507 18.0887C49.086 18.364 49.7026 18.3513 50.2047 18.3968L54.1962 18.443C54.2442 18.2598 54.294 18.0577 54.2639 17.8684C54.1673 17.2622 53.9081 17.1818 53.4482 16.8485C54.2829 16.8695 56.0815 16.6938 56.7088 17.2607C56.7152 17.2665 56.7205 17.2733 56.7264 17.2796C58.1848 18.4884 62.4309 18.1431 64.2268 17.9764C69.3218 17.5032 71.1578 16.01 76.7886 16.9112C77.3946 17.0082 78.65 17.158 79.1236 17.5391C79.2021 17.6023 79.2752 17.6802 79.3374 17.7593C78.9926 18.321 78.0207 18.7392 77.365 18.895C76.4657 19.1087 75.4599 19.1561 74.5377 19.2513C76.0268 19.726 80.7264 20.827 81.6754 21.723C84.0128 22.0358 86.6437 23.3253 88.0957 25.2236C88.5458 25.812 88.8696 26.2745 88.9372 27.0329C88.9406 27.0707 88.9395 27.0558 88.9398 27.1009C88.8324 28.0892 87.706 29.0484 86.961 29.6473C85.2901 30.9903 82.5811 32.3783 80.4109 32.5163C80.2971 32.603 80.1771 32.6812 80.0518 32.7502C78.187 33.76 74.9384 34.0729 72.8332 34.456C56.7315 37.3867 37.4351 37.0108 21.6955 32.4312C21.6887 32.4305 21.6817 32.4301 21.6749 32.4291C18.3299 31.9361 15.5733 29.5391 13.5553 27.0148C15.6975 23.6581 17.9958 22.5439 21.7349 21.3691Z"/>
	<path fill="#FE8A29" d="M30.7508 30.8481C29.3825 30.3035 27.8009 29.6674 26.7141 28.6486C26.283 28.2444 25.8476 27.6739 25.8385 27.0554C25.8284 26.3737 26.3213 25.6962 26.7704 25.2272C30.7386 21.0838 43.6606 21.0765 49.0717 20.9723L49.0078 25.621C48.004 25.7558 45.9971 25.7954 45.3477 26.5617C45.7404 27.1771 46.1593 27.2848 46.804 27.6034C44.2691 29.3192 36.1514 32.1013 33.0789 31.5198C32.2896 31.3704 31.5116 31.1028 30.7508 30.8481Z"/>
	<path fill="#21282A" d="M31.2759 20.1531C34.5175 19.2708 38.6262 18.9283 41.9794 18.9632C42.6906 19.0286 43.3786 18.9412 43.897 19.4526L43.8041 20.0244C45.5583 20.0293 51.3265 19.59 52.5385 20.1053L52.6576 20.2302C53.2485 21.592 52.3747 24.9207 53.8153 25.4848C53.9952 25.5553 54.228 25.5529 54.42 25.5542C54.1458 25.9075 53.8413 26.4505 53.5213 26.7351C53.1252 27.0876 52.3998 27.3021 52.1504 27.7744C52.1201 27.8318 52.0924 27.887 52.069 27.9478C52.3519 28.1056 52.5986 28.2193 52.9163 28.289C51.6797 28.9399 49.9613 28.1466 48.7534 28.7079C48.132 28.2392 47.5157 27.9155 46.804 27.6034C46.1593 27.2848 45.7404 27.1771 45.3477 26.5617C45.9971 25.7954 48.004 25.7558 49.0078 25.621L49.0717 20.9723C43.6606 21.0765 30.7386 21.0838 26.7704 25.2272C26.3213 25.6962 25.8284 26.3737 25.8385 27.0554C25.8476 27.6739 26.283 28.2444 26.7141 28.6486C27.8009 29.6674 29.3825 30.3035 30.7508 30.8481L30.478 32.0089C28.3778 31.5826 25.9636 30.6921 24.1205 29.5965C23.282 29.0981 22.3909 28.4184 22.1443 27.422C22.0111 26.8836 22.1756 26.3519 22.4555 25.8884C24.1741 23.0419 29.5608 22.0108 32.5781 21.2664C32.1098 20.9198 31.6666 20.5893 31.2759 20.1531Z"/>
	<path fill="#F6D61E" d="M31.2759 20.1531C34.5175 19.2708 38.6262 18.9283 41.9794 18.9632C42.6906 19.0286 43.3786 18.9412 43.897 19.4526L43.8041 20.0244C39.9989 20.1539 36.3303 20.6475 32.5781 21.2664C32.1098 20.9198 31.6666 20.5893 31.2759 20.1531Z"/>
	<path fill="#020407" d="M30.5102 33.3856C42.3944 36.0289 69.0758 36.3204 80.1805 31.2249L80.8527 31.6752C80.7623 32.0315 80.6607 32.2452 80.4109 32.5163C80.2971 32.603 80.1771 32.6812 80.0518 32.7502C78.187 33.76 74.9384 34.0729 72.8332 34.456C56.7315 37.3867 37.4351 37.0108 21.6955 32.4312L22.3913 31.1355C24.6305 32.0213 28.096 33.4782 30.5102 33.3856Z"/>
	<path fill="#020407" d="M56.7264 17.2796C58.1848 18.4884 62.4309 18.1431 64.2268 17.9764C69.3218 17.5032 71.1578 16.01 76.7886 16.9112C77.3946 17.0082 78.65 17.158 79.1236 17.5391C79.2021 17.6023 79.2752 17.6802 79.3374 17.7593C78.9926 18.321 78.0207 18.7392 77.365 18.895C76.4657 19.1087 75.4599 19.1561 74.5377 19.2513C76.0268 19.726 80.7264 20.827 81.6754 21.723L81.7174 22.3636L81.1195 23.0117C76.4374 19.4967 61.0272 18.7244 54.8005 18.7128L54.1962 18.443C54.2442 18.2598 54.294 18.0577 54.2639 17.8684C54.1673 17.2622 53.9081 17.1818 53.4482 16.8485C54.2829 16.8695 56.0815 16.6938 56.7088 17.2607C56.7152 17.2665 56.7205 17.2733 56.7264 17.2796Z"/>
	<path fill="#29B9C2" d="M71.6131 17.3732C71.7885 17.3325 71.9672 17.3077 72.1471 17.2991C72.9534 17.2645 74.386 17.7886 74.9772 18.3297L74.9657 18.6761C74.8901 18.7368 74.8126 18.788 74.7304 18.8392C74.0634 19.2554 72.6016 19.1614 71.806 19.2037C70.8628 18.6839 68.4328 18.6671 67.2859 18.5084C68.7429 18.1935 70.2201 17.9155 71.6131 17.3732Z"/>
	<path fill="#020407" d="M21.7349 21.3691C22.8554 21.0546 26.1042 20.4327 26.9041 19.691C26.9748 19.6253 27.0426 19.56 27.1052 19.4865C26.2807 18.5065 24.428 18.8657 23.557 17.7359L23.743 17.374C26.132 17.0349 29.2714 16.1825 31.6309 16.3824C35.4329 16.7046 37.478 18.5125 42.3156 18.1609C43.3823 18.0833 45.5283 18.1145 46.2563 17.274C46.3009 17.2351 46.3473 17.2021 46.3963 17.1692C46.8208 16.8845 48.0186 16.9568 48.5534 16.9314L48.6507 18.0887C49.086 18.364 49.7026 18.3513 50.2047 18.3968C47.5929 18.6056 44.5041 18.4328 41.9794 18.9632C38.6262 18.9283 34.5175 19.2708 31.2759 20.1531C28.2292 20.592 25.2015 21.3838 22.4026 22.6902L21.7349 21.3691Z"/>
	<path fill="#29B9C2" d="M30.4629 17.2542C31.9847 17.5987 33.4462 18.1099 34.9199 18.6153C33.9356 18.8167 32.9746 18.9469 31.9757 19.0411C30.6918 19.1572 29.1335 19.4357 27.9474 18.8119L27.9593 18.4017C28.6065 17.758 29.6151 17.5323 30.4629 17.2542Z"/>
	<path fill="#21282A" d="M13.5553 27.0148C15.6975 23.6581 17.9958 22.5439 21.7349 21.3691L22.4026 22.6902C20.925 23.4915 18.664 24.4861 18.149 26.2411C17.9677 26.8592 18.0892 27.4319 18.394 27.9873C19.1778 29.4152 21.0088 30.3608 22.3913 31.1355L21.6955 32.4312C21.6887 32.4305 21.6817 32.4301 21.6749 32.4291C18.3299 31.9361 15.5733 29.5391 13.5553 27.0148Z"/>
	<path fill="#21282A" d="M81.6754 21.723C84.0128 22.0358 86.6437 23.3253 88.0957 25.2236C88.5458 25.812 88.8696 26.2745 88.9372 27.0329C88.9406 27.0707 88.9395 27.0558 88.9398 27.1009C88.8324 28.0892 87.706 29.0484 86.961 29.6473C85.2901 30.9903 82.5811 32.3783 80.4109 32.5163C80.6607 32.2452 80.7623 32.0315 80.8527 31.6752L80.1805 31.2249C81.7235 30.5811 83.8365 29.4234 84.6258 27.8974C84.9288 27.3117 85.0121 26.6897 84.8036 26.0572C84.3104 24.5613 82.4346 23.6774 81.1195 23.0117L81.7174 22.3636L81.6754 21.723Z"/>
	<path fill="#020407" d="M54.42 25.5542C57.5217 25.0225 69.9256 21.2891 71.9287 22.2126L71.849 22.4979C68.4666 24.0853 64.2267 24.2696 60.631 25.4101C58.021 26.238 55.7448 28.4418 52.9163 28.289C52.5986 28.2193 52.3519 28.1056 52.069 27.9478C52.0924 27.887 52.1201 27.8318 52.1504 27.7744C52.3998 27.3021 53.1252 27.0876 53.5213 26.7351C53.8413 26.4505 54.1458 25.9075 54.42 25.5542Z"/>
	<path fill="#020407" d="M46.804 27.6034C47.5157 27.9155 48.132 28.2392 48.7534 28.7079C44.4183 30.1464 36.4439 33.8742 31.9998 32.3386L30.478 32.0089L30.7508 30.8481C31.5116 31.1028 32.2896 31.3704 33.0789 31.5198C36.1514 32.1013 44.2691 29.3192 46.804 27.6034Z"/>
	<path fill="#C53C10" d="M43.2321 17.0515C42.2543 16.9953 41.8544 17.0556 41.0536 16.4365L40.9608 15.9391C41.6269 15.0567 42.952 14.8415 43.9904 14.6968C47.2414 14.2436 58.3024 13.8161 60.819 15.4615L61.1153 15.921C60.9661 16.4437 60.8695 16.5865 60.3926 16.8547C59.6758 17.2577 58.4506 17.0671 57.6489 17.0086L56.7264 17.2796C56.7205 17.2733 56.7152 17.2665 56.7088 17.2607C56.0815 16.6938 54.2829 16.8695 53.4482 16.8485C53.9081 17.1818 54.1673 17.2622 54.2639 17.8684C54.294 18.0577 54.2442 18.2598 54.1962 18.443L50.2047 18.3968C49.7026 18.3513 49.086 18.364 48.6507 18.0887L48.5534 16.9314C48.0186 16.9568 46.8208 16.8845 46.3963 17.1692C46.3473 17.2021 46.3009 17.2351 46.2563 17.274C45.2162 17.2873 44.2591 17.2148 43.2321 17.0515Z"/>
	<path fill="#020407" d="M43.2321 17.0515C42.2543 16.9953 41.8544 17.0556 41.0536 16.4365L40.9608 15.9391C41.6269 15.0567 42.952 14.8415 43.9904 14.6968C47.2414 14.2436 58.3024 13.8161 60.819 15.4615L61.1153 15.921C60.9661 16.4437 60.8695 16.5865 60.3926 16.8547C59.6758 17.2577 58.4506 17.0671 57.6489 17.0086C57.8604 16.4814 58.0349 16.0712 57.9519 15.49C57.8081 15.3485 57.6375 15.2307 57.4458 15.1648C55.9716 14.6579 46.5953 14.5329 45.263 15.2236C44.9392 15.3914 44.9503 15.5318 44.8444 15.8617C45.12 16.1751 45.3752 16.4849 45.6046 16.8339C45.5339 16.8845 45.4622 16.9259 45.3858 16.9671C44.861 17.25 43.8287 17.0843 43.2321 17.0515Z"/>
	<path fill="#006A8B" d="M48.5534 16.9314C50.1876 16.8372 51.8118 16.8337 53.4482 16.8485C53.9081 17.1818 54.1673 17.2622 54.2639 17.8684C54.294 18.0577 54.2442 18.2598 54.1962 18.443L50.2047 18.3968C49.7026 18.3513 49.086 18.364 48.6507 18.0887L48.5534 16.9314Z"/>
	<path fill="#21282A" d="M163.989 20.125C165.644 20.0044 176.911 19.8024 177.967 20.3222L178.017 20.6733C176.149 21.1483 173.985 20.9317 172.054 21.1747C172.006 22.0334 171.547 22.8829 170.991 23.5184C169.834 24.8401 168.752 24.8143 167.108 24.9234C166.824 23.6528 168.552 22.4932 168.817 21.3117C168.837 21.2233 168.858 21.1348 168.871 21.0449L168.877 21.0008C167.632 21.0275 165.249 21.3493 164.15 20.7565L163.989 20.125Z"/>
	<path fill="#020407" d="M173.904 28.2504C176.06 27.7234 179.77 26.4851 181.81 27.703C182.618 27.8661 183.389 27.9039 183.905 28.6173C183.783 29.0232 183.78 29.1069 183.396 29.3122C181.724 30.2049 179.363 30.1694 177.52 30.6591C179.304 30.7954 181.1 30.8813 182.836 31.3442L182.736 31.5959C180.96 32.2986 174.884 32.0129 172.777 31.9111L172.488 31.6293C172.853 31.0597 173.387 31.0884 174.031 30.9473C175.993 30.5179 179.798 30.0126 181.231 28.5697L181.24 28.1229C180.719 27.7541 180.43 27.6685 179.783 27.7792C178.61 27.9802 175.168 29.2762 174.253 28.745L173.904 28.2504Z"/>
	<path fill="#EBE7ED" d="M173.904 28.2504C174.555 27.2324 176.461 26.9591 177.564 26.5903C177.498 26.5595 177.431 26.5341 177.363 26.509C175.116 25.6843 170.375 27.1956 168.135 25.8825L168.113 25.8695L168.415 26.1381L168.019 26.0203L167.979 25.8028C168.472 25.6961 168.949 25.5644 169.438 25.4446C170.724 25.1292 182.929 25.0716 183.822 25.6054C183.36 26.5691 182.246 26.5217 181.81 27.703C179.77 26.4851 176.06 27.7234 173.904 28.2504Z"/>
	<path fill="#21282A" d="M109.076 23.1244C110.276 22.9489 110.981 22.991 112.084 23.4991C112.788 23.8227 113.589 24.0436 113.864 24.7869C113.138 25.1589 112.369 24.5768 111.648 24.8519C110.757 25.192 109.789 26.2749 108.834 26.7495C109.956 26.8756 112.72 26.9349 113.477 27.627C113.36 27.853 113.33 27.9101 113.082 27.9902C112.013 28.3346 108.321 27.8918 107.382 27.3902C106.055 26.6818 107.158 25.963 106.862 25.2336C106.734 24.919 106.235 24.7944 106.099 24.3405C107.14 24.0074 108.095 23.6055 109.076 23.1244Z"/>
	<path fill="#020407" d="M163.563 28.8749C165.83 29.0696 168.662 28.1981 170.787 29.1314C171.381 29.3921 171.55 29.5959 171.785 30.1864C171.771 30.3188 171.739 30.4475 171.68 30.5676C171.355 31.2322 170.39 31.7253 169.725 31.9497C169.046 32.179 168.541 32.1554 167.901 31.8365C167.668 31.1483 168.221 30.8208 168.427 30.1242L168.42 29.7348C167.498 29.286 165.3 29.6759 164.204 29.7202C164.197 30.1675 163.725 30.7452 163.418 31.0497C162.771 31.6912 161.866 32.081 160.952 32.0719C160.602 32.0684 160.566 31.9655 160.334 31.7269C160.35 31.0364 160.794 30.5191 161.193 29.9939C161.948 29.0012 162.408 29.0322 163.563 28.8749Z"/>
	<path fill="#21282A" d="M157.191 27.6244L157.212 27.6201C158.101 27.4386 158.866 27.4094 159.627 27.9132C159.767 28.3139 159.741 28.6807 159.588 29.0711C159.182 30.1094 158.062 31.5695 157.057 32.0111C156.67 32.0354 156.256 32.0757 155.87 32.0386C155.35 31.9887 155.104 31.9643 154.769 31.5579C154.775 31.4731 154.789 31.3927 154.804 31.3092C155.025 30.1368 156.736 29.1685 157.095 27.9798C157.13 27.8618 157.166 27.7455 157.191 27.6244Z"/>
</svg>
